<?xml version="1.0" encoding="UTF-8"?>
<!-- Created with Inkscape (http://www.inkscape.org/) -->
<svg width="582.07" height="681.91" version="1.1" viewBox="0 0 582.07 681.91" xml:space="preserve" xmlns="http://www.w3.org/2000/svg"><defs><clipPath id="clipPath16"><path d="m0 720h720v-720h-720z"/></clipPath></defs><g transform="matrix(1.3333 0 0 -1.3333 -193.81 815.5)"><g clip-path="url(#clipPath16)"><g transform="translate(527.74 495.03)"><path d="m0 0h-54.167v-38.082h-53.171v40.239h-112.74v-40.239h-53.977v38.082h-108.33v-307.83l109.35-69.041v176.17c0 20.278 13.801 34.084 34.079 34.084h149.7c20.277 0 34.079-13.806 34.079-34.084v-181.47l0.227 0.132 109.12 74.206v307.83z" fill="#c9ac68"/></g><g transform="translate(392.76 265.43)"><path d="m0 0h-59.108c-1.726 0-3.88-2.154-3.88-4.743v-156.6c0-2.157 2.154-3.884 3.88-3.884h59.108c2.589 0 4.743 1.727 4.743 3.884v156.6c0 2.589-2.154 4.743-4.743 4.743" fill="#c9ac68"/></g><g transform="translate(347.42 610.85)"><path d="m0 0v-77.769c41.465 33.949 82.93 2.573 124.4 36.522-41.465-8.026-82.93 49.273-124.4 41.247" fill="#c9ac68"/></g></g></g></svg>
