<?xml version="1.0" standalone="no"?>
<!DOCTYPE svg PUBLIC "-//W3C//DTD SVG 20010904//EN"
 "http://www.w3.org/TR/2001/REC-SVG-20010904/DTD/svg10.dtd">
<svg version="1.0" xmlns="http://www.w3.org/2000/svg"
 width="512.000000pt" height="512.000000pt" viewBox="0 0 512.000000 512.000000"
 preserveAspectRatio="xMidYMid meet">
<metadata>
Created by potrace 1.14, written by Peter Selinger 2001-2017
</metadata>
<g transform="translate(0.000000,512.000000) scale(0.100000,-0.100000)"
fill="#000000" stroke="none">
<path d="M2404 5112 c-8 -5 -12 -116 -12 -389 0 -211 2 -383 5 -383 5 0 65 40
73 50 11 12 98 53 150 70 107 36 184 47 395 56 206 8 283 17 347 40 21 7 38
11 38 7 0 -3 7 1 17 8 9 8 18 13 20 11 7 -5 129 60 161 86 l33 27 -73 0 c-81
0 -132 8 -182 29 -19 8 -37 12 -40 8 -3 -3 -6 1 -6 8 0 7 -3 10 -6 7 -4 -3
-54 19 -113 49 -100 52 -122 64 -203 114 -18 11 -51 30 -73 42 -22 12 -49 28
-60 34 -76 45 -222 107 -285 120 -44 9 -175 14 -186 6z"/>
<path d="M2001 3970 c-4 -3 -7 -93 -7 -200 l1 -195 -265 -2 c-158 -2 -266 1
-270 7 -3 5 -5 90 -5 190 1 156 -1 180 -15 180 -24 1 -980 1 -1027 1 l-43 -1
0 -1540 0 -1541 31 -17 c17 -9 66 -41 110 -70 44 -28 82 -52 85 -52 2 0 26
-15 52 -33 77 -52 86 -57 104 -63 10 -4 18 -10 18 -15 0 -5 4 -9 9 -9 5 0 37
-18 70 -40 33 -22 64 -40 70 -40 5 0 11 -3 13 -8 3 -8 191 -129 228 -147 11
-5 20 -13 20 -17 0 -5 5 -8 10 -8 6 0 38 -18 71 -40 33 -22 65 -40 70 -40 5 0
9 -4 9 -9 0 -5 10 -13 23 -17 12 -4 24 -10 27 -13 3 -4 21 -16 40 -27 l35 -21
1 911 c0 857 1 914 18 966 34 101 102 170 201 205 46 17 112 18 845 19 437 1
817 -2 844 -7 124 -22 209 -94 252 -212 16 -46 18 -116 20 -990 1 -517 2 -941
3 -943 1 -1 48 30 106 70 58 40 113 78 123 83 9 6 19 12 22 15 5 5 283 194
350 237 19 12 42 28 50 35 8 7 41 30 75 52 33 21 62 42 63 47 2 5 7 9 12 9 4
0 43 24 85 52 42 29 84 58 93 63 9 6 25 18 36 28 11 9 23 17 28 17 4 0 17 8
28 17 20 17 20 27 20 1555 l0 1538 -52 0 c-65 1 -926 1 -988 0 l-46 0 1 -180
c0 -99 -2 -185 -5 -190 -3 -5 -117 -8 -265 -7 l-260 2 -2 195 c0 107 -2 197
-2 200 -1 3 -251 5 -557 5 -306 0 -559 -2 -563 -5z"/>
<path d="M2226 1630 c-18 -38 -16 -1591 3 -1613 11 -14 55 -16 326 -16 283 0
314 1 327 17 12 14 14 135 13 814 0 628 -3 800 -13 810 -10 10 -88 13 -328 13
l-316 0 -12 -25z"/>
</g>
</svg>
